<svg width="77" height="78" viewBox="0 0 77 78" fill="none" xmlns="http://www.w3.org/2000/svg">
<g filter="url(#filter0_i_2121_317)">
<path d="M66.6783 0.25H65.8674C64.544 0.25 63.3665 0.924121 62.626 1.96387H62.6239C61.2988 1.96387 60.1204 2.63913 59.3803 3.68059V3.67773C57.1444 3.67773 55.3259 5.60001 55.3259 7.9624V12.0841L52.8391 14.6757L50.3524 12.0841V7.9624C50.3524 5.60001 48.5339 3.67773 46.298 3.67773V3.68059C45.5579 2.63913 44.3795 1.96387 43.0544 1.96387H43.0523C42.3118 0.924121 41.1343 0.25 39.8109 0.25H39V13.7108L44.7455 20.9307H43.8653V29.5H61.813V20.9307H60.9328L66.6783 13.7108V0.25ZM48.7307 7.9624V10.5595C48.2359 10.244 47.6829 10.0443 47.1089 9.97391V6.24854C47.1089 5.99945 47.0874 5.75494 47.0489 5.51728C48.0237 5.85263 48.7307 6.82154 48.7307 7.9624ZM43.8653 3.82456C44.8092 4.1783 45.4871 5.13115 45.4871 6.24854V10.1172C45.101 10.2368 44.7341 10.4166 44.3983 10.6508L43.8653 10.0882V3.82456ZM52.0283 27.7861H45.4871V22.6445H52.0283V27.7861ZM52.0283 20.9307H46.8645L40.6218 13.0864V2.11075C41.5656 2.46432 42.2436 3.41723 42.2436 4.53467V10.7983L47.3462 16.1907L48.4933 14.979L45.5849 11.9054C45.9082 11.7414 46.2644 11.6552 46.6337 11.6552C47.2835 11.6552 47.8944 11.9226 48.3539 12.4082L52.0283 16.2376V20.9307ZM60.1912 6.24854C60.1912 5.13115 60.8691 4.1783 61.813 3.82456V10.0882L61.2799 10.6508C60.9442 10.4166 60.5773 10.2368 60.1912 10.1172V6.24854ZM56.9476 7.9624C56.9476 6.8216 57.6546 5.85263 58.6294 5.51728C58.5899 5.75881 58.5699 6.00343 58.5694 6.24854V9.97391C57.9954 10.0443 57.4424 10.244 56.9476 10.5595V7.9624ZM60.1912 27.7861H53.65V22.6445H60.1912V27.7861ZM65.0565 13.0864L58.8138 20.9307H53.65V16.2376L57.3244 12.4082C57.7839 11.9226 58.3948 11.6552 59.0445 11.6552C59.4139 11.6552 59.7701 11.7414 60.0934 11.9054L57.185 14.979L58.332 16.1907L63.4347 10.7983V4.53467C63.4347 3.41728 64.1126 2.46443 65.0565 2.11069V13.0864Z" fill="#1E5A83"/>
</g>
<g filter="url(#filter1_d_2121_317)">
<path d="M31.9283 59.664C31.7896 59.664 31.6456 59.6533 31.4962 59.632C31.3362 59.6213 31.1762 59.6107 31.0162 59.6L31.1442 58.272C31.3042 58.2827 31.4536 58.2933 31.5922 58.304C31.7203 58.3147 31.8269 58.32 31.9123 58.32C32.3923 58.32 32.7763 58.1387 33.0643 57.776C33.3629 57.4133 33.5123 56.9067 33.5123 56.256V47.984H35.0163V56.256C35.0163 56.928 34.8829 57.52 34.6163 58.032C34.3496 58.544 33.9869 58.944 33.5283 59.232C33.0696 59.52 32.5363 59.664 31.9283 59.664ZM39.117 56V54.672H41.037V56H39.117ZM37.629 56V44.576H39.117V56H37.629ZM41.037 56V54.672C41.165 54.672 41.2503 54.7307 41.293 54.848C41.3357 54.9653 41.357 55.1253 41.357 55.328C41.357 55.5307 41.3357 55.696 41.293 55.824C41.2503 55.9413 41.165 56 41.037 56ZM41.0312 56V54.672H49.0312L48.5193 55.12V52.448C48.5193 51.8827 48.4446 51.4187 48.2953 51.056C48.1566 50.6827 47.9433 50.4107 47.6553 50.24C47.3673 50.0587 47.0099 49.968 46.5833 49.968H43.0793L42.0553 48.448L42.7913 47.056C42.9086 46.8427 43.0313 46.6187 43.1593 46.384C43.2979 46.1387 43.4633 45.8613 43.6553 45.552C43.8579 45.232 44.1139 44.848 44.4233 44.4L45.6713 45.12C45.3726 45.5787 45.1273 45.9573 44.9353 46.256C44.7539 46.5547 44.5993 46.816 44.4713 47.04C44.3433 47.2533 44.2206 47.4667 44.1033 47.68L43.3513 49.12L43.0312 48.64H46.5833C47.2553 48.64 47.8153 48.7573 48.2633 48.992C48.7113 49.216 49.0579 49.5147 49.3033 49.888C49.5593 50.2613 49.7406 50.6773 49.8472 51.136C49.9646 51.584 50.0233 52.0213 50.0233 52.448V56H41.0312ZM41.0312 56C40.8926 56 40.8072 55.9413 40.7752 55.824C40.7326 55.696 40.7112 55.5307 40.7112 55.328C40.7112 55.1253 40.7326 54.9653 40.7752 54.848C40.8072 54.7307 40.8926 54.672 41.0312 54.672V56ZM51.8275 56V54.672H57.7475L56.6115 55.68V52.4C56.6115 51.6213 56.5208 51.008 56.3395 50.56C56.1688 50.112 55.8862 49.7973 55.4915 49.616C55.0968 49.424 54.5635 49.328 53.8915 49.328H52.5955V47.984H53.8915C54.7768 47.984 55.5342 48.128 56.1635 48.416C56.7928 48.6933 57.2728 49.1573 57.6035 49.808C57.9342 50.448 58.0995 51.312 58.0995 52.4V56H51.8275ZM52.9315 46.544V44.992H54.4355V46.544H52.9315ZM59.6244 56V54.672H67.5284L66.7444 55.472V44.576H68.2324V56H59.6244ZM62.0884 54.672V46.832H63.5764V54.672H62.0884ZM62.0404 45.696C61.859 45.472 61.7204 45.2587 61.6244 45.056C61.5284 44.8427 61.4804 44.6187 61.4804 44.384C61.4804 44.064 61.5604 43.776 61.7204 43.52C61.891 43.264 62.1097 43.0613 62.3764 42.912C62.6537 42.7627 62.947 42.688 63.2564 42.688C63.4377 42.688 63.619 42.7147 63.8004 42.768C63.9817 42.8213 64.1417 42.8907 64.2804 42.976L63.8324 43.76C63.747 43.7067 63.6617 43.6747 63.5764 43.664C63.491 43.6427 63.4057 43.632 63.3204 43.632C63.0644 43.632 62.867 43.7013 62.7284 43.84C62.5897 43.9787 62.5204 44.16 62.5204 44.384C62.5204 44.5227 62.547 44.656 62.6004 44.784C62.6537 44.9013 62.739 45.0347 62.8564 45.184L62.0404 45.696ZM61.1604 45.728V44.8H64.5044V45.728H61.1604ZM71.004 56V44.576H72.492V56H71.004Z" fill="#1E5A83"/>
</g>
<defs>
<filter id="filter0_i_2121_317" x="39" y="0.25" width="27.6782" height="33.25" filterUnits="userSpaceOnUse" color-interpolation-filters="sRGB">
<feFlood flood-opacity="0" result="BackgroundImageFix"/>
<feBlend mode="normal" in="SourceGraphic" in2="BackgroundImageFix" result="shape"/>
<feColorMatrix in="SourceAlpha" type="matrix" values="0 0 0 0 0 0 0 0 0 0 0 0 0 0 0 0 0 0 127 0" result="hardAlpha"/>
<feOffset dy="4"/>
<feGaussianBlur stdDeviation="2"/>
<feComposite in2="hardAlpha" operator="arithmetic" k2="-1" k3="1"/>
<feColorMatrix type="matrix" values="0 0 0 0 0 0 0 0 0 0 0 0 0 0 0 0 0 0 0.25 0"/>
<feBlend mode="normal" in2="shape" result="effect1_innerShadow_2121_317"/>
</filter>
<filter id="filter1_d_2121_317" x="27.0164" y="42.688" width="49.4756" height="24.976" filterUnits="userSpaceOnUse" color-interpolation-filters="sRGB">
<feFlood flood-opacity="0" result="BackgroundImageFix"/>
<feColorMatrix in="SourceAlpha" type="matrix" values="0 0 0 0 0 0 0 0 0 0 0 0 0 0 0 0 0 0 127 0" result="hardAlpha"/>
<feOffset dy="4"/>
<feGaussianBlur stdDeviation="2"/>
<feComposite in2="hardAlpha" operator="out"/>
<feColorMatrix type="matrix" values="0 0 0 0 0 0 0 0 0 0 0 0 0 0 0 0 0 0 0.25 0"/>
<feBlend mode="normal" in2="BackgroundImageFix" result="effect1_dropShadow_2121_317"/>
<feBlend mode="normal" in="SourceGraphic" in2="effect1_dropShadow_2121_317" result="shape"/>
</filter>
</defs>
</svg>
