<svg width="77" height="78" viewBox="0 0 77 78" fill="none" xmlns="http://www.w3.org/2000/svg">
<g filter="url(#filter0_i_2121_315)">
<path d="M37.7187 11.869L46.5115 3.24202V3.24603L48.2117 1.57834C48.4308 1.36347 48.7134 1.25 49 1.25C49.2866 1.25 49.5692 1.36347 49.7883 1.57834L49.7883 1.57839L60.2836 11.8714L60.2844 11.8721C60.7365 12.3146 61 12.9424 61 13.6076V26.1282C61 26.7689 60.7543 27.3762 60.3281 27.8184C59.9031 28.2594 59.3346 28.5 58.75 28.5H54.4167C54.1263 28.5 53.8378 28.4407 53.5674 28.3244C53.2969 28.2081 53.0487 28.0366 52.838 27.8179C52.6272 27.599 52.4582 27.3373 52.3423 27.0466C52.2264 26.7559 52.1665 26.4432 52.1667 26.1266V26.126V20.5063C52.1667 19.9546 51.9558 19.4185 51.5694 19.0176C51.1817 18.6154 50.648 18.3824 50.0833 18.3824H47.9167C47.352 18.3824 46.8183 18.6154 46.4306 19.0176C46.0442 19.4185 45.8333 19.9546 45.8333 20.5063V26.126C45.8333 26.7666 45.5877 27.374 45.1614 27.8162C44.7364 28.2572 44.168 28.4978 43.5833 28.4978H39.25C38.6654 28.4978 38.0969 28.2572 37.6719 27.8162C37.2457 27.374 37 26.7666 37 26.126V13.6053C37 12.9418 37.2645 12.3135 37.7178 11.8698L37.7187 11.869Z" stroke="#1E5A83" stroke-width="2"/>
</g>
<g filter="url(#filter1_d_2121_315)">
<path d="M25.6325 56C24.7045 56 23.9738 55.8613 23.4405 55.584C22.9072 55.296 22.5232 54.8587 22.2885 54.272C22.0645 53.6747 21.9525 52.9227 21.9525 52.016C21.9525 51.0987 22.0645 50.3413 22.2885 49.744C22.5232 49.1467 22.9072 48.704 23.4405 48.416C23.9738 48.128 24.7045 47.984 25.6325 47.984H29.0245V55.264H27.5365V48.8L28.1445 49.328H25.6325C25.0672 49.328 24.6245 49.3973 24.3045 49.536C23.9845 49.664 23.7605 49.9253 23.6325 50.32C23.5045 50.704 23.4405 51.2693 23.4405 52.016C23.4405 52.752 23.5045 53.312 23.6325 53.696C23.7605 54.0693 23.9792 54.3253 24.2885 54.464C24.6085 54.6027 25.0565 54.672 25.6325 54.672H30.7365V56H25.6325ZM30.7365 56V54.672C30.8752 54.672 30.9605 54.7307 30.9925 54.848C31.0352 54.9653 31.0565 55.1253 31.0565 55.328C31.0565 55.5307 31.0352 55.696 30.9925 55.824C30.9605 55.9413 30.8752 56 30.7365 56ZM23.9685 46.688V45.136H25.4725V46.688H23.9685ZM26.1605 46.688V45.136H27.6645V46.688H26.1605ZM34.1744 56V54.672H35.9824V56H34.1744ZM35.9824 56V54.672C36.121 54.672 36.2064 54.7307 36.2384 54.848C36.281 54.9653 36.3024 55.1253 36.3024 55.328C36.3024 55.5307 36.281 55.696 36.2384 55.824C36.2064 55.9413 36.121 56 35.9824 56ZM30.7344 56V54.672H33.4544L32.6864 55.28V47.984H34.1744V56H30.7344ZM30.7344 56C30.5957 56 30.5104 55.9413 30.4784 55.824C30.4357 55.696 30.4144 55.5307 30.4144 55.328C30.4144 55.1253 30.4357 54.9653 30.4784 54.848C30.5104 54.7307 30.5957 54.672 30.7344 54.672V56ZM31.3744 59.008V57.456H32.8784V59.008H31.3744ZM33.5664 59.008V57.456H35.0704V59.008H33.5664ZM48.4004 56V54.672H50.1124V56H48.4004ZM44.6724 56C44.2884 56 43.9097 55.9307 43.5364 55.792C43.1737 55.6427 42.827 55.4133 42.4964 55.104L43.4404 54.112C43.675 54.304 43.8884 54.448 44.0804 54.544C44.2724 54.6293 44.4697 54.672 44.6724 54.672H47.5684L46.9124 55.312V51.568C46.9124 51.376 46.891 51.1093 46.8484 50.768C46.8164 50.416 46.763 50.0213 46.6884 49.584C46.6244 49.136 46.5444 48.6827 46.4484 48.224L47.9044 47.984C47.979 48.368 48.0537 48.7893 48.1284 49.248C48.203 49.7067 48.267 50.144 48.3204 50.56C48.3737 50.976 48.4004 51.312 48.4004 51.568V56H44.6724ZM35.9844 56V54.672H38.3204L37.9524 55.04V49.6H39.4404V56H35.9844ZM39.4404 56V54.672H41.1044C41.467 54.672 41.739 54.6187 41.9204 54.512C42.1017 54.4053 42.2297 54.192 42.3044 53.872C42.379 53.552 42.4164 53.0827 42.4164 52.464V48.8H43.9204V52.464C43.9204 53.328 43.819 54.0213 43.6164 54.544C43.4244 55.0667 43.1257 55.44 42.7204 55.664C42.315 55.888 41.7764 56 41.1044 56H39.4404ZM35.9844 56C35.8457 56 35.7604 55.9413 35.7284 55.824C35.6857 55.696 35.6644 55.5307 35.6644 55.328C35.6644 55.1253 35.6857 54.9653 35.7284 54.848C35.7604 54.7307 35.8457 54.672 35.9844 54.672V56ZM50.1124 56V54.672C50.251 54.672 50.3364 54.7307 50.3684 54.848C50.411 54.9653 50.4324 55.1253 50.4324 55.328C50.4324 55.5307 50.411 55.696 50.3684 55.824C50.3364 55.9413 50.251 56 50.1124 56ZM53.5494 56V54.672H55.3574V56H53.5494ZM55.3574 56V54.672C55.496 54.672 55.5814 54.7307 55.6134 54.848C55.656 54.9653 55.6774 55.1253 55.6774 55.328C55.6774 55.5307 55.656 55.696 55.6134 55.824C55.5814 55.9413 55.496 56 55.3574 56ZM50.1094 56V54.672H52.8294L52.0614 55.28V47.984H53.5494V56H50.1094ZM50.1094 56C49.9707 56 49.8854 55.9413 49.8534 55.824C49.8107 55.696 49.7894 55.5307 49.7894 55.328C49.7894 55.1253 49.8107 54.9653 49.8534 54.848C49.8854 54.7307 49.9707 54.672 50.1094 54.672V56ZM50.7494 59.008V57.456H52.2534V59.008H50.7494ZM52.9414 59.008V57.456H54.4454V59.008H52.9414ZM55.3594 56V54.672H57.8394L57.0714 55.28V47.984H58.5754V56H55.3594ZM55.3594 56C55.2207 56 55.1354 55.9413 55.1034 55.824C55.0607 55.696 55.0394 55.5307 55.0394 55.328C55.0394 55.1253 55.0607 54.9653 55.1034 54.848C55.1354 54.7307 55.2207 54.672 55.3594 54.672V56ZM57.0234 46.512C56.842 46.288 56.7034 46.0747 56.6074 45.872C56.5114 45.6587 56.4634 45.4347 56.4634 45.2C56.4634 44.88 56.5434 44.592 56.7034 44.336C56.874 44.08 57.0927 43.8773 57.3594 43.728C57.6367 43.5787 57.93 43.504 58.2394 43.504C58.4207 43.504 58.602 43.5307 58.7834 43.584C58.9647 43.6373 59.1247 43.7067 59.2634 43.792L58.8154 44.576C58.73 44.5227 58.6447 44.4907 58.5594 44.48C58.474 44.4587 58.3887 44.448 58.3034 44.448C58.0474 44.448 57.85 44.5173 57.7114 44.656C57.5727 44.7947 57.5034 44.976 57.5034 45.2C57.5034 45.3387 57.53 45.472 57.5834 45.6C57.6367 45.7173 57.722 45.8507 57.8394 46L57.0234 46.512ZM56.1434 46.544V45.616H59.4874V46.544H56.1434ZM62.8521 56V54.672H64.9001V56H62.8521ZM60.1001 59.664C59.9615 59.664 59.8175 59.6533 59.6681 59.632C59.5081 59.6213 59.3481 59.6107 59.1881 59.6L59.3161 58.272C59.4761 58.2827 59.6255 58.2933 59.7641 58.304C59.8921 58.3147 59.9988 58.32 60.0841 58.32C60.5641 58.32 60.9481 58.1387 61.2361 57.776C61.5348 57.4133 61.6841 56.9067 61.6841 56.256V47.984H63.1881V56.256C63.1881 56.928 63.0548 57.52 62.7881 58.032C62.5215 58.544 62.1588 58.944 61.7001 59.232C61.2415 59.52 60.7081 59.664 60.1001 59.664ZM64.9001 56V54.672C65.0388 54.672 65.1241 54.7307 65.1561 54.848C65.1988 54.9653 65.2201 55.1253 65.2201 55.328C65.2201 55.5307 65.1988 55.696 65.1561 55.824C65.1241 55.9413 65.0388 56 64.9001 56ZM66.8103 56V44.576H68.2983V56H66.8103ZM64.9062 56V54.672H66.8103V56H64.9062ZM64.9062 56C64.7676 56 64.6822 55.9413 64.6502 55.824C64.6076 55.696 64.5862 55.5307 64.5862 55.328C64.5862 55.1253 64.6076 54.9653 64.6502 54.848C64.6822 54.7307 64.7676 54.672 64.9062 54.672V56ZM71.004 56V44.576H72.492V56H71.004Z" fill="#1E5A83"/>
</g>
<defs>
<filter id="filter0_i_2121_315" x="36" y="0.25" width="26" height="33.25" filterUnits="userSpaceOnUse" color-interpolation-filters="sRGB">
<feFlood flood-opacity="0" result="BackgroundImageFix"/>
<feBlend mode="normal" in="SourceGraphic" in2="BackgroundImageFix" result="shape"/>
<feColorMatrix in="SourceAlpha" type="matrix" values="0 0 0 0 0 0 0 0 0 0 0 0 0 0 0 0 0 0 127 0" result="hardAlpha"/>
<feOffset dy="4"/>
<feGaussianBlur stdDeviation="2"/>
<feComposite in2="hardAlpha" operator="arithmetic" k2="-1" k3="1"/>
<feColorMatrix type="matrix" values="0 0 0 0 0 0 0 0 0 0 0 0 0 0 0 0 0 0 0.25 0"/>
<feBlend mode="normal" in2="shape" result="effect1_innerShadow_2121_315"/>
</filter>
<filter id="filter1_d_2121_315" x="17.9524" y="43.504" width="58.5396" height="24.16" filterUnits="userSpaceOnUse" color-interpolation-filters="sRGB">
<feFlood flood-opacity="0" result="BackgroundImageFix"/>
<feColorMatrix in="SourceAlpha" type="matrix" values="0 0 0 0 0 0 0 0 0 0 0 0 0 0 0 0 0 0 127 0" result="hardAlpha"/>
<feOffset dy="4"/>
<feGaussianBlur stdDeviation="2"/>
<feComposite in2="hardAlpha" operator="out"/>
<feColorMatrix type="matrix" values="0 0 0 0 0 0 0 0 0 0 0 0 0 0 0 0 0 0 0.25 0"/>
<feBlend mode="normal" in2="BackgroundImageFix" result="effect1_dropShadow_2121_315"/>
<feBlend mode="normal" in="SourceGraphic" in2="effect1_dropShadow_2121_315" result="shape"/>
</filter>
</defs>
</svg>
