<svg width="26" height="30" viewBox="0 0 26 30" fill="none" xmlns="http://www.w3.org/2000/svg">
<g filter="url(#filter0_b_2109_186)">
<path d="M13.7002 1.53243L13.1711 1.01354C13.3971 1.04948 13.613 1.15647 13.7883 1.32834L13.7883 1.32839L24.2836 11.6214L24.2844 11.6221C24.7365 12.0646 25 12.6924 25 13.3576V25.8782C25 26.5189 24.7543 27.1262 24.3281 27.5684C23.9031 28.0094 23.3346 28.25 22.75 28.25H18.4167C18.1263 28.25 17.8378 28.1907 17.5674 28.0744C17.2969 27.9581 17.0487 27.7866 16.838 27.5679C16.6272 27.349 16.4582 27.0873 16.3423 26.7966C16.2264 26.5059 16.1665 26.1932 16.1667 25.8766V25.876V20.2563C16.1667 19.7046 15.9558 19.1685 15.5694 18.7676C15.1817 18.3654 14.648 18.1324 14.0833 18.1324H11.9167C11.352 18.1324 10.8183 18.3654 10.4306 18.7676C10.0442 19.1685 9.83333 19.7046 9.83333 20.2563V25.876C9.83333 26.5166 9.58768 27.124 9.16144 27.5662C8.73641 28.0072 8.16795 28.2478 7.58333 28.2478H3.25C2.66538 28.2478 2.09693 28.0072 1.67189 27.5662C1.24566 27.124 1 26.5166 1 25.876V13.3553C1 12.6918 1.26449 12.0635 1.71778 11.6198L1.71868 11.619L10.5115 2.99202V2.99604L12.2117 1.32834C12.3869 1.15651 12.6028 1.04952 12.8288 1.01356L12.2997 1.53251L1.8044 11.8277L1.80344 11.8287C1.6002 12.0286 1.44032 12.2672 1.33161 12.5289C1.22293 12.7905 1.16713 13.071 1.16667 13.3537V13.3553V25.876C1.16667 26.4276 1.37756 26.9638 1.76398 27.3647C2.1516 27.7668 2.68534 27.9999 3.25 27.9999H7.58333C8.14799 27.9999 8.68173 27.7668 9.06936 27.3647C9.45577 26.9638 9.66667 26.4276 9.66667 25.876V20.2563C9.66667 19.6156 9.91232 19.0083 10.3386 18.566C10.7636 18.1251 11.332 17.8845 11.9167 17.8845H14.0833C14.668 17.8845 15.2364 18.1251 15.6614 18.566C16.0877 19.0083 16.3333 19.6156 16.3333 20.2563V25.876C16.3333 26.4276 16.5442 26.9638 16.9306 27.3647C17.3183 27.7668 17.852 27.9999 18.4167 27.9999H22.75C23.3147 27.9999 23.8484 27.7668 24.236 27.3647C24.6224 26.9638 24.8333 26.4276 24.8333 25.876V13.3556C24.8333 13.3555 24.8333 13.3554 24.8333 13.3553C24.8334 13.0721 24.7778 12.7909 24.6692 12.5286C24.5605 12.2661 24.4003 12.0268 24.1966 11.8264L24.1955 11.8254L13.7002 1.53243ZM22.8333 13.3551V13.3553V25.876C22.8333 25.9205 22.816 25.9561 22.796 25.9767C22.7773 25.9961 22.76 25.9999 22.75 25.9999H18.4167C18.4067 25.9999 18.3893 25.9961 18.3706 25.9767C18.3507 25.9561 18.3333 25.9205 18.3333 25.876V20.2563C18.3333 19.1084 17.8942 18.0005 17.1014 17.1781C16.3075 16.3544 15.2226 15.8845 14.0833 15.8845H11.9167C10.7774 15.8845 9.69253 16.3544 8.89858 17.1781C8.10583 18.0005 7.66667 19.1084 7.66667 20.2563V25.876C7.66667 25.9204 7.64929 25.9561 7.62937 25.9767C7.61067 25.9961 7.59331 25.9999 7.58333 25.9999H3.25C3.24002 25.9999 3.22266 25.9961 3.20396 25.9767C3.18405 25.9561 3.16667 25.9205 3.16667 25.876V13.3565C3.16676 13.3347 3.17114 13.314 3.17861 13.2961C3.18605 13.2782 3.19587 13.2645 3.20564 13.2548C3.20572 13.2547 3.20581 13.2546 3.20589 13.2546L13.0001 3.64711L22.7941 13.2523C22.7942 13.2524 22.7943 13.2525 22.7945 13.2527C22.8042 13.2624 22.814 13.276 22.8214 13.2939C22.829 13.3121 22.8333 13.333 22.8333 13.3551Z" stroke="#1E5A83" stroke-width="2"/>
</g>
<defs>
<filter id="filter0_b_2109_186" x="-4" y="-4" width="34" height="37.25" filterUnits="userSpaceOnUse" color-interpolation-filters="sRGB">
<feFlood flood-opacity="0" result="BackgroundImageFix"/>
<feGaussianBlur in="BackgroundImageFix" stdDeviation="2"/>
<feComposite in2="SourceAlpha" operator="in" result="effect1_backgroundBlur_2109_186"/>
<feBlend mode="normal" in="SourceGraphic" in2="effect1_backgroundBlur_2109_186" result="shape"/>
</filter>
</defs>
</svg>
