<svg width="77" height="79" viewBox="0 0 77 79" fill="none" xmlns="http://www.w3.org/2000/svg">
<g filter="url(#filter0_d_2121_318)">
<path d="M20.9423 57C19.3209 57 18.0996 56.7067 17.2783 56.12C16.4569 55.5333 16.0463 54.6373 16.0463 53.432C16.0463 53.176 16.0623 52.904 16.0943 52.616C16.1369 52.3173 16.1796 52.0293 16.2223 51.752C16.2756 51.4747 16.3236 51.2347 16.3663 51.032C16.4089 50.8293 16.4409 50.6853 16.4622 50.6L17.9183 50.872C17.8863 51.0427 17.8383 51.272 17.7743 51.56C17.7209 51.848 17.6676 52.1573 17.6143 52.488C17.5609 52.8187 17.5343 53.1333 17.5343 53.432C17.5343 53.9653 17.6463 54.3973 17.8703 54.728C18.1049 55.0587 18.4729 55.2987 18.9743 55.448C19.4756 55.5973 20.1423 55.672 20.9743 55.672H25.5503V48.984H27.0543V57H20.9423ZM19.6943 49.24V47.688H21.1983V49.24H19.6943ZM21.8863 49.24V47.688H23.3903V49.24H21.8863ZM31.242 57V55.672H33.162V57H31.242ZM29.754 57V45.576H31.242V57H29.754ZM33.162 57V55.672C33.29 55.672 33.3753 55.7307 33.418 55.848C33.4607 55.9653 33.482 56.1253 33.482 56.328C33.482 56.5307 33.4607 56.696 33.418 56.824C33.3753 56.9413 33.29 57 33.162 57ZM33.1562 57V55.672H41.0603L40.2923 56.344V49.8L40.9163 50.328H38.3883C37.8123 50.328 37.3643 50.3973 37.0443 50.536C36.7243 50.6747 36.5003 50.936 36.3723 51.32C36.2549 51.704 36.1963 52.264 36.1963 53C36.1963 53.736 36.2549 54.296 36.3723 54.68C36.5003 55.064 36.7243 55.3253 37.0443 55.464C37.3643 55.6027 37.8123 55.672 38.3883 55.672V56.712C37.4603 56.712 36.7296 56.5947 36.1963 56.36C35.6629 56.1253 35.2789 55.736 35.0443 55.192C34.8203 54.648 34.7083 53.9173 34.7083 53C34.7083 52.0933 34.8203 51.3467 35.0443 50.76C35.2789 50.1627 35.6629 49.72 36.1963 49.432C36.7296 49.1333 37.4603 48.984 38.3883 48.984H41.7803V57H33.1562ZM33.1562 57C33.0176 57 32.9322 56.9413 32.9002 56.824C32.8576 56.696 32.8362 56.5307 32.8362 56.328C32.8362 56.1253 32.8576 55.9653 32.9002 55.848C32.9322 55.7307 33.0176 55.672 33.1562 55.672V57ZM36.8683 47.688V46.136H38.3723V47.688H36.8683ZM39.0603 47.688V46.136H40.5643V47.688H39.0603ZM45.9928 57V55.672H48.0408V57H45.9928ZM43.2408 60.664C43.1021 60.664 42.9581 60.6533 42.8087 60.632C42.6487 60.6213 42.4887 60.6107 42.3287 60.6L42.4567 59.272C42.6167 59.2827 42.7661 59.2933 42.9047 59.304C43.0328 59.3147 43.1394 59.32 43.2248 59.32C43.7048 59.32 44.0888 59.1387 44.3768 58.776C44.6754 58.4133 44.8248 57.9067 44.8248 57.256V48.984H46.3288V57.256C46.3288 57.928 46.1954 58.52 45.9288 59.032C45.6621 59.544 45.2994 59.944 44.8408 60.232C44.3821 60.52 43.8488 60.664 43.2408 60.664ZM48.0408 57V55.672C48.1794 55.672 48.2648 55.7307 48.2968 55.848C48.3394 55.9653 48.3608 56.1253 48.3608 56.328C48.3608 56.5307 48.3394 56.696 48.2968 56.824C48.2648 56.9413 48.1794 57 48.0408 57ZM56.6709 57V55.672H58.3829V57H56.6709ZM48.0469 57V55.672H55.9509L55.1829 56.344V49.8L55.8069 50.328H53.2789C52.7029 50.328 52.2549 50.3973 51.9349 50.536C51.6149 50.6747 51.3909 50.936 51.2629 51.32C51.1455 51.704 51.0869 52.264 51.0869 53C51.0869 53.736 51.1455 54.296 51.2629 54.68C51.3909 55.064 51.6149 55.3253 51.9349 55.464C52.2549 55.6027 52.7029 55.672 53.2789 55.672V56.712C52.3509 56.712 51.6202 56.5947 51.0869 56.36C50.5535 56.1253 50.1695 55.736 49.9349 55.192C49.7109 54.648 49.5989 53.9173 49.5989 53C49.5989 52.0933 49.7109 51.3467 49.9349 50.76C50.1695 50.1627 50.5535 49.72 51.0869 49.432C51.6202 49.1333 52.3509 48.984 53.2789 48.984H56.6709V57H48.0469ZM48.0469 57C47.9082 57 47.8229 56.9413 47.7909 56.824C47.7482 56.696 47.7269 56.5307 47.7269 56.328C47.7269 56.1253 47.7482 55.9653 47.7909 55.848C47.8229 55.7307 47.9082 55.672 48.0469 55.672V57ZM58.3829 57V55.672C58.5215 55.672 58.6069 55.7307 58.6389 55.848C58.6815 55.9653 58.7029 56.1253 58.7029 56.328C58.7029 56.5307 58.6815 56.696 58.6389 56.824C58.6069 56.9413 58.5215 57 58.3829 57ZM52.7669 47.544V45.992H54.2709V47.544H52.7669ZM61.8306 57V55.672H63.6386V57H61.8306ZM63.6386 57V55.672C63.7773 55.672 63.8626 55.7307 63.8946 55.848C63.9373 55.9653 63.9586 56.1253 63.9586 56.328C63.9586 56.5307 63.9373 56.696 63.8946 56.824C63.8626 56.9413 63.7773 57 63.6386 57ZM58.3906 57V55.672H61.1106L60.3426 56.28V48.984H61.8306V57H58.3906ZM58.3906 57C58.252 57 58.1666 56.9413 58.1346 56.824C58.092 56.696 58.0706 56.5307 58.0706 56.328C58.0706 56.1253 58.092 55.9653 58.1346 55.848C58.1666 55.7307 58.252 55.672 58.3906 55.672V57ZM59.0306 47.688V46.136H60.5346V47.688H59.0306ZM61.2226 47.688V46.136H62.7266V47.688H61.2226ZM63.6406 57V55.672H72.2646L71.3206 56.376V53.064C71.3206 52.36 71.2406 51.8107 71.0806 51.416C70.9313 51.0213 70.6646 50.7387 70.2806 50.568C69.8966 50.3973 69.374 50.312 68.7126 50.312C68.2646 50.312 67.822 50.344 67.3846 50.408C66.9473 50.472 66.606 50.5573 66.3606 50.664L67.2726 49.768C67.2086 50.0133 67.1446 50.328 67.0806 50.712C67.0166 51.096 66.9633 51.512 66.9206 51.96C66.878 52.3973 66.8566 52.8347 66.8566 53.272C66.8566 53.7093 66.878 54.1413 66.9206 54.568C66.9633 54.9947 67.0113 55.368 67.0646 55.688C67.118 56.008 67.1606 56.2267 67.1926 56.344L65.7686 56.744C65.726 56.6053 65.6726 56.3653 65.6086 56.024C65.5553 55.6827 65.502 55.272 65.4486 54.792C65.406 54.312 65.3846 53.8053 65.3846 53.272C65.3846 52.7493 65.406 52.2427 65.4486 51.752C65.502 51.2507 65.5606 50.7973 65.6246 50.392C65.6993 49.9867 65.7686 49.6613 65.8326 49.416C66.078 49.32 66.4566 49.224 66.9686 49.128C67.4913 49.032 68.0726 48.984 68.7126 48.984C69.6193 48.984 70.3766 49.1173 70.9846 49.384C71.6033 49.6507 72.062 50.0827 72.3606 50.68C72.67 51.2667 72.8246 52.0613 72.8246 53.064V57H63.6406ZM63.6406 57C63.502 57 63.4166 56.9413 63.3846 56.824C63.342 56.696 63.3206 56.5307 63.3206 56.328C63.3206 56.1253 63.342 55.9653 63.3846 55.848C63.4166 55.7307 63.502 55.672 63.6406 55.672V57Z" fill="#1E5A83"/>
</g>
<g filter="url(#filter1_i_2121_318)">
<path d="M52.3637 26.0642V24.9424C52.3637 23.1555 51.497 21.549 50.1022 20.7497L47.4545 19.2328V13.5671C47.4545 12.0734 46.8485 10.7057 45.8345 9.83025C45.8874 9.50018 46.0636 9.22255 46.2927 9.13524C47.9667 8.49699 49.0908 6.70942 49.0908 4.68692C49.0908 1.78972 46.8317 -0.4051 44.3186 0.0631515C42.3752 0.424903 40.909 2.49941 40.909 4.8876V8.05636C38.8697 10.5287 37.6363 13.8786 37.6363 17.4901V22.7853C37.6363 24.1887 37.9779 25.5317 38.6154 26.6904C37.0866 27.3699 36 29.0737 36 31.0625V32H51.5453C52.8986 32 54 30.7381 54 29.1875C54.0005 28.5457 53.8485 27.9158 53.5602 27.3656C53.2719 26.8153 52.8582 26.3654 52.3637 26.0642ZM49.5289 22.5261C50.2723 23.0317 50.7271 23.9399 50.7271 24.9424V25.3867L48.8737 24.6787L49.5289 22.5261ZM42.5455 4.8876C42.5455 3.40885 43.4208 2.13003 44.5815 1.91372C46.1516 1.62078 47.4545 3.00529 47.4545 4.68692C47.4551 5.27754 47.2933 5.85336 46.992 6.33257C46.6907 6.81179 46.2653 7.17002 45.7762 7.35636C45.1304 7.60249 44.6284 8.17574 44.3717 8.90399L42.5455 7.85761V4.8876ZM39.2726 17.4901C39.2726 14.5454 40.2033 11.7639 41.9046 9.58712L44.4612 11.0515C45.2983 11.5307 45.8182 12.4953 45.8182 13.5671V20.3915L48.0551 21.6735L47.3213 24.0862L44.1818 22.8867V14.0623H42.5455V24.238L45.0238 25.1848C43.9326 26.573 42.205 27.1318 40.5943 26.5169L40.5425 26.4969C39.7226 25.4835 39.2726 24.1747 39.2726 22.7853V17.4901ZM51.5453 30.125H37.7765C38.101 29.0756 38.9548 28.3112 39.9681 28.2537C40.0407 28.2747 40.8082 28.6406 41.927 28.6406C43.7928 28.6406 45.5748 27.6081 46.6745 25.815L51.3708 27.6086C51.6601 27.7188 51.9117 27.9307 52.0899 28.2141C52.2682 28.4976 52.364 28.8381 52.3637 29.1875C52.3637 29.7044 51.9966 30.125 51.5453 30.125Z" fill="#1E5A83"/>
</g>
<defs>
<filter id="filter0_d_2121_318" x="12.0461" y="45.576" width="64.7786" height="23.088" filterUnits="userSpaceOnUse" color-interpolation-filters="sRGB">
<feFlood flood-opacity="0" result="BackgroundImageFix"/>
<feColorMatrix in="SourceAlpha" type="matrix" values="0 0 0 0 0 0 0 0 0 0 0 0 0 0 0 0 0 0 127 0" result="hardAlpha"/>
<feOffset dy="4"/>
<feGaussianBlur stdDeviation="2"/>
<feComposite in2="hardAlpha" operator="out"/>
<feColorMatrix type="matrix" values="0 0 0 0 0 0 0 0 0 0 0 0 0 0 0 0 0 0 0.25 0"/>
<feBlend mode="normal" in2="BackgroundImageFix" result="effect1_dropShadow_2121_318"/>
<feBlend mode="normal" in="SourceGraphic" in2="effect1_dropShadow_2121_318" result="shape"/>
</filter>
<filter id="filter1_i_2121_318" x="36" y="0" width="18" height="36" filterUnits="userSpaceOnUse" color-interpolation-filters="sRGB">
<feFlood flood-opacity="0" result="BackgroundImageFix"/>
<feBlend mode="normal" in="SourceGraphic" in2="BackgroundImageFix" result="shape"/>
<feColorMatrix in="SourceAlpha" type="matrix" values="0 0 0 0 0 0 0 0 0 0 0 0 0 0 0 0 0 0 127 0" result="hardAlpha"/>
<feOffset dy="4"/>
<feGaussianBlur stdDeviation="2"/>
<feComposite in2="hardAlpha" operator="arithmetic" k2="-1" k3="1"/>
<feColorMatrix type="matrix" values="0 0 0 0 0 0 0 0 0 0 0 0 0 0 0 0 0 0 0.25 0"/>
<feBlend mode="normal" in2="shape" result="effect1_innerShadow_2121_318"/>
</filter>
</defs>
</svg>
