<svg width="18" height="29" viewBox="0 0 18 29" fill="none" xmlns="http://www.w3.org/2000/svg">
<g filter="url(#filter0_b_2109_196)">
<path d="M16.3637 23.6207V22.604C16.3637 20.9846 15.497 19.5288 14.1022 18.8044L11.4545 17.4298V12.2952C11.4545 10.9416 10.8485 9.70208 9.83452 8.90866C9.88743 8.60954 10.0636 8.35794 10.2927 8.27881C11.9667 7.7004 13.0908 6.08041 13.0908 4.24752C13.0908 1.62193 10.8317 -0.367122 8.31863 0.0572311C6.37523 0.385068 4.90897 2.26509 4.90897 4.42939V7.30108C2.86973 9.54168 1.63632 12.5775 1.63632 15.8504V20.6492C1.63632 21.921 1.97788 23.1381 2.61539 24.1881C1.08657 24.804 0 26.3481 0 28.1504V29H15.5453C16.8986 29 18 27.8564 18 26.4512C18.0005 25.8695 17.8485 25.2987 17.5602 24.8001C17.2719 24.3014 16.8583 23.8937 16.3637 23.6207ZM13.5289 20.4143C14.2723 20.8725 14.7271 21.6955 14.7271 22.604V23.0067L12.8737 22.365L13.5289 20.4143ZM6.54551 4.42939C6.54551 3.08927 7.42078 1.93034 8.58154 1.73431C10.1516 1.46883 11.4545 2.72354 11.4545 4.24752C11.4551 4.78277 11.2933 5.30461 10.992 5.7389C10.6907 6.17318 10.2653 6.49783 9.77616 6.6667C9.13036 6.88975 8.62839 7.40926 8.37165 8.06924L6.54551 7.12096V4.42939ZM3.27265 15.8504C3.27265 13.1818 4.20333 10.661 5.90462 8.68833L8.46116 10.0154C9.2983 10.4497 9.81816 11.3238 9.81816 12.2952V18.4798L12.0551 19.6416L11.3213 21.8281L8.18178 20.741V12.7439H6.54546V21.9657L9.02383 22.8237C7.93257 24.0818 6.20499 24.5882 4.59431 24.0309L4.54249 24.0128C3.72264 23.0945 3.27265 21.9083 3.27265 20.6492V15.8504ZM15.5453 27.3008H1.7765C2.10104 26.3498 2.95476 25.6571 3.96809 25.6049C4.04074 25.6239 4.80817 25.9556 5.92698 25.9556C7.79277 25.9556 9.57484 25.0198 10.6745 23.3948L15.3708 25.0203C15.6601 25.1202 15.9117 25.3122 16.0899 25.5691C16.2682 25.8259 16.364 26.1346 16.3637 26.4512C16.3637 26.9196 15.9966 27.3008 15.5453 27.3008Z" fill="#1E5A83"/>
</g>
<defs>
<filter id="filter0_b_2109_196" x="-4" y="-4" width="26" height="37" filterUnits="userSpaceOnUse" color-interpolation-filters="sRGB">
<feFlood flood-opacity="0" result="BackgroundImageFix"/>
<feGaussianBlur in="BackgroundImageFix" stdDeviation="2"/>
<feComposite in2="SourceAlpha" operator="in" result="effect1_backgroundBlur_2109_196"/>
<feBlend mode="normal" in="SourceGraphic" in2="effect1_backgroundBlur_2109_196" result="shape"/>
</filter>
</defs>
</svg>
